<!--suppress CheckTagEmptyBody -->
<svg version="1.1" xmlns="http://www.w3.org/2000/svg" preserveAspectRatio="xMidYMid meet" viewBox="0 0 100 100"
     width="100" height="100">
  <defs>
    <symbol id="add" viewBox="0 0 100 100">
      <path d="M50 15 v 70" stroke-width="12" stroke-linecap="round">
      </path>
      <path d="M15 50 h 70" stroke-width="12" stroke-linecap="round">
      </path>
    </symbol>
    <symbol id="up" viewBox="0 0 100 100">
      <path d="M50 6 v 88" stroke-width="12" stroke-linecap="round">
      </path>
      <path d="M80 36 l -30 -30 l -30 30" fill="transparent" stroke-width="12" stroke-linecap="round"
            stroke-linejoin="round">
      </path>
    </symbol>
    <symbol id="down" viewBox="0 0 100 100">
      <path d="M50 6 v 88" stroke-width="12" stroke-linecap="round">
      </path>
      <path d="M80 64 l -30 30 l -30 -30" fill="transparent" stroke-width="12" stroke-linecap="round"
            stroke-linejoin="round">
      </path>
    </symbol>
    <symbol id="total" viewBox="0 0 100 100">
      <path d="M6 50 l 12 -35 l 24 70 l 12 -35 h 40" fill="transparent" stroke-width="8" stroke-linecap="round"
            stroke-linejoin="round">
      </path>
      <path d="M69 25 l 25 25 l -25 25" fill="transparent" stroke-width="8" stroke-linecap="round"
            stroke-linejoin="round">
      </path>
    </symbol>
    <symbol id="remove" viewBox="0 0 100 100">
      <path d="M15 15 l 70 70" stroke-width="12" stroke-linecap="round">
      </path>
      <path d="M15 85 l 70 -70" stroke-width="12" stroke-linecap="round">
      </path>
    </symbol>
    <symbol id="back" viewBox="0 0 100 100">
      <path d="M6 50 h 88" stroke-width="12" stroke-linecap="round">
      </path>
      <path d="M50 6 l -44 44 l 44 44" fill="transparent" stroke-width="12" stroke-linejoin="round"
            stroke-linecap="round">
      </path>
    </symbol>
    <symbol id="logout" viewBox="0 0 100 100">
      <path d="M94 50 h -60" stroke-width="12" stroke-linecap="round">
      </path>
      <path d="M70 26 l 24 24 l -24 24" fill="transparent" stroke-width="12" stroke-linejoin="round"
            stroke-linecap="round">
      </path>
      <path d="M40 6 h -34 v 88 h 34" fill="transparent" stroke-width="12" stroke-linejoin="round"
            stroke-linecap="round">
      </path>
    </symbol>
    <symbol id="wallet" viewBox="0 0 100 100">
      <path d="M11 40 l 36 -36 l 36 36 Z" stroke-width="6" stroke-linecap="square"
            stroke-linejoin="round">
      </path>
      <path d="M11 60 l 48 -48" stroke-width="12" stroke="#082840">
      </path>
      <path d="M87 94 h -81 v -49 h 81 v 49" stroke-width="12" stroke-linecap="round"
            stroke-linejoin="round" stroke="currentColor" fill="currentColor">
      </path>
      <g>
        <path d="M67 55 h 30 v 24 h -30 a 12 12 0 1 1 0 -24" stroke-width="6" stroke-linecap="round"
              stroke-linejoin="round">
        </path>
        <circle cx="67" cy="67" r="6" stroke="#082840" fill="#082840">
        </circle>
      </g>
    </symbol>
    <mask id="wallet-mask" x="0" y="0" width="100" height="100">
      <g>
        <path d="M11 40 l 36 -36 l 36 36 Z" stroke-width="6" stroke-linecap="square"
              stroke-linejoin="round" stroke="white" fill="white">
        </path>
        <path d="M11 60 l 50 -50" stroke-width="12" stroke="black"></path>
        <path d="M87 94 h -81 v -49 h 81 v 49" stroke-width="12" stroke-linecap="round"
              stroke-linejoin="round" stroke="white" fill="white">
        </path>
        <g>
          <path d="M67 55 h 30 v 24 h -30 a 12 12 0 1 1 0 -24" stroke-width="6" stroke-linecap="round"
                stroke-linejoin="round" stroke="white" fill="white">
          </path>
          <circle cx="67" cy="67" r="6" stroke="black" fill="black"/>
        </g>
      </g>
    </mask>
    <symbol id="wallet-alpha" viewBox="0 0 100 100">
      <rect x="0" y="0" width="100" height="100" fill="#444" stroke="none" mask="url(#wallet-mask)"></rect>
    </symbol>
    <mask id="sleep-mask" x="0" y="0" width="100" height="100">
      <g>
        <path d="M11 40 l 36 -36 l 36 36 Z" stroke-width="6" stroke-linecap="square"
              stroke-linejoin="round" stroke="white" fill="white">
        </path>
        <path d="M11 60 l 50 -50" stroke-width="12" stroke="black"></path>
        <path d="M87 94 h -81 v -49 h 81 v 49" stroke-width="12" stroke-linecap="round"
              stroke-linejoin="round" stroke="white" fill="white">
        </path>
        <g>
          <path d="M67 55 h 30 v 24 h -30 a 12 12 0 1 1 0 -24" stroke-width="6" stroke-linecap="round"
                stroke-linejoin="round" stroke="white" fill="white">
          </path>
          <path d="M49 52 h 8" stroke-width="3" stroke="black" fill="transparent" stroke-linecap="round"/>
          <path d="M78 52 h 8" stroke-width="3" stroke="black" fill="transparent" stroke-linecap="round"/>
          <circle cx="67" cy="67" r="6" stroke="black" fill="black"/>
          <path d="M16 80 h 8 l -8 10 h 8" stroke-width="2" stroke="black" fill="transparent" stroke-linecap="round"
                stroke-linejoin="round"/>
          <path d="M33 75 h 6 l -6 7.5 h 6" stroke-width="2" stroke="black" fill="transparent" stroke-linecap="round"
                stroke-linejoin="round"/>
          <path d="M48 70 h 4 l -4 5 h 4" stroke-width="2" stroke="black" fill="transparent" stroke-linecap="round"
                stroke-linejoin="round"/>
        </g>
      </g>
    </mask>
    <symbol id="sleep" viewBox="0 0 100 100">
      <rect x="0" y="0" width="100" height="100" mask="url(#sleep-mask)"></rect>
    </symbol>
    <symbol id="more" viewBox="0 0 100 100">
      <path d="M28 6 l 44 44 l -44 44" fill="transparent" stroke-width="12" stroke-linejoin="round"
            stroke-linecap="round">
      </path>
    </symbol>
    <symbol id="money" viewBox="0 0 100 100">
      <path d="M6 26 h 88 v 48 h -88 Z" fill="#00b550" stroke="#00a549" stroke-width="12">
      </path>
      <circle cx="50" cy="50" r="12" stroke="#d8ba4b" fill="#d8ba4b"/>
    </symbol>
    <symbol id="error" viewBox="0 0 100 100">
      <circle cx="50" cy="50" r="50" stroke-width="0">
      </circle>
      <path d="M50 16 v 36" stroke-width="12" stroke-linecap="round" stroke="white">
      </path>
      <path d="M50 80 v 0.01" stroke-width="16" stroke-linecap="round" stroke="white">
      </path>
    </symbol>
    <symbol id="save" viewBox="0 0 100 100">
      <path d="M6 43 l 34 34 l 54 -54" stroke-width="12" stroke-linecap="round" stroke-linejoin="round"
            fill="transparent">
      </path>
    </symbol>
    <symbol id="reset" viewBox="0 0 100 100">
      <path d="M15 65 v -15 a 35 35 0 1 1 35 35" stroke-width="10" stroke-linecap="round" fill="transparent"
      >
      </path>
      <path d="M5 55 l 10 10 l 10 -10" stroke-width="10" stroke-linecap="round" stroke-linejoin="round"
            fill="transparent">
      </path>
    </symbol>
    <symbol id="delete" viewBox="0 0 100 100">
      <path d="M40 10 h 20" stroke-width="10" stroke-linecap="round">
      </path>
      <path d="M15 25 h 70" stroke-width="10" stroke-linecap="round">
      </path>
      <path d="M20 40 v 50 h 60 v -50" stroke-width="10" stroke-linecap="round" stroke-linejoin="round"
            fill="transparent">
      </path>
      <path d="M40 40 v 35" stroke-width="10" stroke-linecap="round">
      </path>
      <path d="M60 40 v 35" stroke-width="10" stroke-linecap="round">
      </path>
    </symbol>
  </defs>
</svg>
