<!--suppress CheckTagEmptyBody -->
<svg version="1.1" xmlns="http://www.w3.org/2000/svg" preserveAspectRatio="xMidYMid meet" viewBox="0 0 100 100"
     width="100" height="100">
  <defs>
    <symbol id="logo" viewBox="0 0 100 100">
      <path id="ceiling" d="M18 37 l 32 -32 l 32 32" stroke-width="6" stroke-linecap="square" stroke-linejoin="round"
            stroke="#c5c6c9" fill="#c5c6c9">
      </path>
      <path id="stripe" d="M18 57 h 60" stroke-width="10" stroke="#444"></path>
      <path d="M85 85 h -70 v -45 h 70 v 45" stroke-width="6" stroke-linecap="round" stroke-linejoin="round"
            stroke="#092949" fill="#092949"></path>
      <g id="door">
        <path d="M60 60 v 25 h -20 v -25 a 10 10 0 1 1 20 0" stroke-width="6" stroke-linecap="round"
              stroke-linejoin="round" stroke="#c5c6c9" fill="#c5c6c9">
        </path>
        <circle cx="50" cy="60" r="5" fill="#092949" stroke="#092949"></circle>
      </g>
    </symbol>
    <symbol id="back" viewBox="0 0 100 100">
      <path d="M0 70 c 30 -5 75 25 80 30 h -80 v -30" stroke-width="6" stroke-linecap="round" stroke-linejoin="round"
            stroke="#c5c6c9" fill="#c5c6c9">
      </path>
      <path d="M100 75 c -30 -5 -50 20 -50 25 h 55 v -30" stroke-width="6" stroke-linecap="round" stroke-linejoin="round"
            stroke="lightgrey" fill="lightgrey">
      </path>
      <path d="M10 83 c -5 -5 -5 -5 0 -20 c 5 15 5 15 0 20" stroke-width="2" stroke-linecap="round" stroke-linejoin="round"
            stroke="lightgreen" fill="lightgreen">
      </path>
      <path d="M90 77 c -5 -5 -5 -5 0 -20 c 5 15 5 15 0 20" stroke-width="2" stroke-linecap="round" stroke-linejoin="round"
            stroke="lightgreen" fill="lightgreen">
      </path>
      <path d="M20 20 h20" stroke-width="20" stroke-linecap="round" stroke-linejoin="round"
            stroke="#e0e0e0">
      </path>
      <path d="M35 30 h 30" stroke-width="20" stroke-linecap="round" stroke-linejoin="round"
            stroke="#e0e0e0">
      </path>
    </symbol>
  </defs>
</svg>
