<!--suppress CheckTagEmptyBody -->
<svg version="1.1" xmlns="http://www.w3.org/2000/svg" preserveAspectRatio="xMidYMid meet" viewBox="0 0 100 100"
     width="100" height="100">
  <defs>
    <symbol id="logo" viewBox="0 0 100 100">
      <path id="ceiling" d="M18 49 l 32 -32 l 32 32" stroke-width="6" stroke-linecap="square" stroke-linejoin="round"
            stroke="#fa8b00" fill="#fa8b00">
      </path>
      <path id="stripe" d="M18 69 h 60" stroke-width="10" stroke="#444"></path>
      <path id="body" d="M85 97 h -70 v -45 h 70 v 45" stroke-width="6" stroke-linecap="round" stroke-linejoin="round"
            stroke="#d8ba4b" fill="#d8ba4b"></path>
      <g id="door">
        <path d="M60 72 v 25 h -20 v -25 a 10 10 0 1 1 20 0" stroke-width="6" stroke-linecap="round"
              stroke-linejoin="round" stroke="#a05900" fill="#a05900">
        </path>
        <circle cx="50" cy="72" r="5" fill="#d8ba4b"></circle>
      </g>
    </symbol>
    <symbol id="tree" viewBox="20 30">
      <path d="M10 5 c 7 20 7 20 0 25 v -25" stroke-width="1" stroke-linecap="round" stroke-linejoin="round"
            stroke="#00a549" fill="#00a549"></path>
      <path d="M10 30 c -7 -5 -7 -5 0 -25 v 25" stroke-width="1" stroke-linecap="round" stroke-linejoin="round"
            stroke="#00b550" fill="#00b550"></path>
    </symbol>
    <symbol id="back" viewBox="0 0 100 100">
      <g id="background">
        <g id="water">
          <path d="M12 82 h 75" stroke-linecap="round" stroke-width="5" stroke="#1f97ce"></path>
          <path id="stream1" d="M70 83 h 5" stroke-width="1" stroke-linecap="round" stroke="#5cb3db"></path>
          <path id="stream2" d="M25 83 h 5" stroke-width="1" stroke-linecap="round" stroke="#5cb3db"></path>
        </g>
        <path d="M10 80 h 80" stroke-linecap="round" stroke-width="3" stroke="#c5c6c9"></path>
        <use href="#tree" x="13" y="48"></use>
        <use href="#tree" x="5" y="48"></use>
        <use href="#tree" x="75" y="48"></use>
        <circle id="sun" cx="25" cy="20" r="12" fill="#f7d24f"></circle>
        <g id="clouds">
          <path d="M20 15 h20" stroke-width="10" stroke-linecap="round" stroke-linejoin="round"
                stroke="#e0e0e0">
          </path>
          <path d="M35 20 h 30" stroke-width="10" stroke-linecap="round" stroke-linejoin="round"
                stroke="#e0e0e0">
          </path>
        </g>
      </g>
      <use href="#logo" x="30" y="38.5" height="40" width="40"></use>
    </symbol>
    <symbol id="add" viewBox="0 0 100 100">
      <path d="M50 6 v 88" stroke-width="12" stroke-linecap="round">
      </path>
      <path d="M6 50 h 88" stroke-width="12" stroke-linecap="round">
      </path>
    </symbol>
    <symbol id="up" viewBox="0 0 100 100">
      <path d="M50 6 v 88" stroke-width="12" stroke-linecap="round">
      </path>
      <path d="M80 36 l -30 -30 l -30 30" fill="transparent" stroke-width="12" stroke-linecap="round"
            stroke-linejoin="round">
      </path>
    </symbol>
    <symbol id="down" viewBox="0 0 100 100">
      <path d="M50 6 v 88" stroke-width="12" stroke-linecap="round">
      </path>
      <path d="M80 64 l -30 30 l -30 -30" fill="transparent" stroke-width="12" stroke-linecap="round"
            stroke-linejoin="round">
      </path>
    </symbol>
    <symbol id="stable" viewBox="0 0 100 100">
      <path d="M6 50 l 12 -35 l 24 70 l 12 -35 h 40" fill="transparent" stroke-width="8" stroke-linecap="round"
            stroke-linejoin="round">
      </path>
      <path d="M69 25 l 25 25 l -25 25" fill="transparent" stroke-width="8" stroke-linecap="round" stroke-linejoin="round">
      </path>
    </symbol>
    <symbol id="close" viewBox="0 0 100 100">
      <path d="M6 6 l 88 88" stroke-width="12" stroke-linecap="round" stroke="#444">
      </path>
      <path d="M6 94 l 88 -88" stroke-width="12" stroke-linecap="round" stroke="#444">
      </path>
    </symbol>
    <symbol id="backbutton" viewBox="0 0 100 100">
      <path d="M6 50 h 88" stroke-width="12" stroke-linecap="round" stroke="#444">
      </path>
      <path d="M50 6 l -44 44 l 44 44" fill="transparent" stroke-width="12" stroke-linejoin="round"
            stroke-linecap="round" stroke="#444">
      </path>
    </symbol>
    <symbol id="logout" viewBox="0 0 100 100">
      <path d="M94 50 h -60" stroke-width="12" stroke-linecap="round" stroke="#444">
      </path>
      <path d="M70 26 l 24 24 l -24 24" fill="transparent" stroke-width="12" stroke-linejoin="round"
            stroke-linecap="round" stroke="#444">
      </path>
      <path d="M40 6 h -34 v 88 h 34" fill="transparent" stroke-width="12" stroke-linejoin="round"
            stroke-linecap="round" stroke="#444">
      </path>
    </symbol>
    <symbol id="wallet" viewBox="0 0 100 100">
      <path d="M11 40 l 36 -36 l 36 36 Z" stroke-width="6" stroke-linecap="square"
            stroke-linejoin="round" stroke="#fa8b00" fill="#fa8b00">
      </path>
      <path d="M11 60 l 48 -48" stroke-width="12" stroke="#444">
      </path>
      <path d="M87 94 h -81 v -49 h 81 v 49" stroke-width="12" stroke-linecap="round"
            stroke-linejoin="round" stroke="#d8ba4b" fill="#d8ba4b">
      </path>
      <g>
        <path d="M67 55 h 30 v 24 h -30 a 12 12 0 1 1 0 -24" stroke-width="6" stroke-linecap="round"
              stroke-linejoin="round" stroke="#a05900" fill="#a05900">
        </path>
        <circle cx="67" cy="67" r="6" stroke="#d8ba4b" fill="#d8ba4b">
        </circle>
      </g>
    </symbol>
    <mask id="wallet-mask" x="0" y="0" width="100" height="100">
      <g>
        <path d="M11 40 l 36 -36 l 36 36 Z" stroke-width="6" stroke-linecap="square"
              stroke-linejoin="round" stroke="white" fill="white">
        </path>
        <path d="M11 60 l 50 -50" stroke-width="12" stroke="black"></path>
        <path d="M87 94 h -81 v -49 h 81 v 49" stroke-width="12" stroke-linecap="round"
              stroke-linejoin="round" stroke="white" fill="white">
        </path>
        <g>
          <path d="M67 55 h 30 v 24 h -30 a 12 12 0 1 1 0 -24" stroke-width="6" stroke-linecap="round"
                stroke-linejoin="round" stroke="white" fill="white">
          </path>
          <circle cx="67" cy="67" r="6" stroke="black" fill="black"/>
        </g>
      </g>
    </mask>
    <symbol id="wallet-alpha" viewBox="0 0 100 100">
      <rect x="0" y="0" width="100" height="100" fill="#444" stroke="none" mask="url(#wallet-mask)"></rect>
    </symbol>
    <symbol id="go" viewBox="0 0 100 100">
      <path d="M28 6 l 44 44 l -44 44" fill="transparent" stroke-width="12" stroke-linejoin="round"
            stroke-linecap="round">
      </path>
    </symbol>
    <symbol id="money" viewBox="0 0 100 100">
      <path d="M6 26 h 88 v 48 h -88 Z" fill="#00b550" stroke="#00a549" stroke-width="12">
      </path>
      <circle cx="50" cy="50" r="12" stroke="#d8ba4b" fill="#d8ba4b"/>
    </symbol>
  </defs>
</svg>
